<svg version="1.1" preserveAspectRatio="none" xmlns="http://www.w3.org/2000/svg" width="500" height="500" viewBox="0 0 500 500"><rect width="100%" height="100%" fill="#192537" fill-opacity="1"/><svg viewBox="69.3442 189.7955 358.5831 81.8664" width="333" height="76.02564426488587" x="83.5px" y="211.9872px" xmlns="http://www.w3.org/2000/svg" xmlns:xlink="http://www.w3.org/1999/xlink" preserveAspectRatio="none"><defs></defs><style>.companyName {fill:#E9E9E9;fill-opacity:1;}.icon1 {fill:#B09E80;fill-opacity:0.98;}.icon2 {fill:#E9E9E9;fill-opacity:1;}.icon3 {fill:#716551;fill-opacity:1;}.icon3-str {stroke:#716551;stroke-opacity:1;}.shapeStroke-str {stroke:#E9E9E9;stroke-opacity:1;}</style><g opacity="1" transform="rotate(0 233.6358 189.7955)">
<svg width="30" height="23.7328" x="233.6358" y="189.7955" version="1.1" preserveAspectRatio="none" viewBox="25.9679012298584 30.976905822753903 48.06419372558594 38.023284912109375">
  <g transform="matrix(1 0 0 1 0 0)" class="icon1"><title>Artboard 265</title><path d="M32,69H68a2,2,0,0,0,2-1.67l4-24a2,2,0,0,0-3-2.07L58.93,48.17l-7.1-16a2,2,0,0,0-3.66,0l-7.1,16L29,41.26a2,2,0,0,0-3,2.07l4,24A2,2,0,0,0,32,69Zm9-16.26a2,2,0,0,0,1.61.16,2,2,0,0,0,1.21-1.09L50,37.92l6.17,13.89a2,2,0,0,0,1.21,1.09A2,2,0,0,0,59,52.74l10.34-5.91L66.31,65H33.69l-3-18.17Z"></path></g>
</svg>
</g><g opacity="1" transform="rotate(0 69.3442 205.6619)">
<svg width="149.2916" height="2" x="69.3442" y="205.6619" version="1.1" preserveAspectRatio="none" viewBox="0 0 149.2916 2">
  <rect x="0" y="0" width="149.2916" height="2" class="icon1 shapeStroke-str" style="stroke-width:0;" rx="0px" ry="0px" />
</svg>
</g><g opacity="1" transform="rotate(0 278.6357 205.6619)">
<svg width="149.2916" height="2" x="278.6357" y="205.6619" version="1.1" preserveAspectRatio="none" viewBox="0 0 149.2916 2">
  <rect x="0" y="0" width="149.2916" height="2" class="icon1 shapeStroke-str" style="stroke-width:0;" rx="0px" ry="0px" />
</svg>
</g><g opacity="1" transform="rotate(0 69.3442 231.6619)">
<svg width="358.5831" height="40" x="69.3442" y="231.6619" version="1.1" preserveAspectRatio="none" viewBox="2.32 -28.76 262.84 29.320000000000004">
  <g transform="matrix(1 0 0 1 0 0)" class="companyName"><path id="id-D6z1nYkh10" d="M2.44-1.64L2.44-1.64Q2.32-2.20 2.32-3.80Q2.32-5.40 2.92-7.20L2.92-7.20L3.28-7.20Q3.24-6.76 3.24-6.32L3.24-6.32Q3.24-3.88 4.72-2.26Q6.20-0.64 8.64-0.64L8.64-0.64Q11.16-0.64 12.78-2.16Q14.40-3.68 14.40-5.98Q14.40-8.28 12.84-9.72L12.84-9.72L5.16-16.84Q3-18.84 3-21.68Q3-24.52 4.90-26.54Q6.80-28.56 10.04-28.56L10.04-28.56Q11.56-28.56 13.48-28.16L13.48-28.16L15.04-28.16L15.04-23.24L14.68-23.24Q14.68-25.12 13.38-26.24Q12.08-27.36 10.04-27.36Q8-27.36 6.62-26Q5.24-24.64 5.24-22.60Q5.24-20.56 6.84-19.08L6.84-19.08L14.72-11.80Q16.72-9.96 16.72-6.76Q16.72-3.56 14.68-1.50Q12.64 0.56 9.24 0.56L9.24 0.56Q7.48 0.56 5.50 0.02Q3.52-0.52 2.44-1.64Z M44.56-23.76L44.56-24.44Q44.56-25.40 43.88-26.10Q43.20-26.80 42.28-26.84L42.28-26.84L34.68-26.84L34.68-2.88Q34.72-1.84 35.46-1.12Q36.20-0.40 37.24-0.40L37.24-0.40L37.76-0.40L37.76 0L29 0L29-0.40L29.52-0.40Q30.56-0.40 31.30-1.12Q32.04-1.84 32.08-2.84L32.08-2.84L32.08-26.84L24.48-26.84Q23.52-26.80 22.86-26.10Q22.20-25.40 22.20-24.44L22.20-24.44L22.20-23.76L21.80-23.72L21.80-28.76Q22.40-28.52 23.88-28.28Q25.36-28.04 26.60-28.04L26.60-28.04L40.12-28.04Q42.08-28.04 43.38-28.34Q44.68-28.64 44.96-28.76L44.96-28.76L44.96-23.72L44.56-23.76Z M73.52-0.40L73.52-0.40L73.84-0.40L73.84 0L64.84 0L64.84-0.40L65.20-0.40Q66.04-0.40 66.46-0.94Q66.88-1.48 66.88-1.96Q66.88-2.44 66.72-2.92L66.72-2.92L64.16-9.72L53.36-9.72L50.68-2.88Q50.52-2.40 50.52-1.94Q50.52-1.48 50.94-0.94Q51.36-0.40 52.20-0.40L52.20-0.40L52.56-0.40L52.56 0L44.52 0L44.52-0.40L44.88-0.40Q45.88-0.40 46.84-1.04Q47.80-1.68 48.40-2.92L48.40-2.92L57.44-24.44Q58.92-27.68 58.92-28.56L58.92-28.56L59.28-28.56L70-2.92Q70.56-1.68 71.52-1.04Q72.48-0.40 73.52-0.40ZM58.88-23.76L53.84-10.92L63.68-10.92L58.88-23.76Z M86.04-26.76L86.04-26.76L83.48-26.76L83.48-2.92Q83.48-1.88 84.22-1.14Q84.96-0.40 86.04-0.40L86.04-0.40L86.52-0.40L86.56 0L77.80 0L77.80-0.40L78.32-0.40Q79.36-0.40 80.10-1.12Q80.84-1.84 80.88-2.88L80.88-2.88L80.88-25.08Q80.84-26.12 80.10-26.86Q79.36-27.60 78.32-27.60L78.32-27.60L77.80-27.60L77.80-28L88.60-28Q92.24-28 94.32-25.98Q96.40-23.96 96.40-20.74Q96.40-17.52 94.42-15.18Q92.44-12.84 89.60-12.84L89.60-12.84Q90.20-12.56 91.02-11.74Q91.84-10.92 92.48-10.04L92.48-10.04Q95.92-5.12 96.96-3.98Q98-2.84 98.44-2.42Q98.88-2 99.40-1.60Q99.92-1.20 100.44-0.96L100.44-0.96Q101.60-0.40 102.92-0.40L102.92-0.40L102.92 0L100.72 0Q99 0 97.52-0.62Q96.04-1.24 95.30-1.90Q94.56-2.56 94.02-3.18Q93.48-3.80 91.04-7.32Q88.60-10.84 88.20-11.34Q87.80-11.84 87.36-12.32L87.36-12.32Q86.08-13.68 84.80-13.68L84.80-13.68L84.80-14.08Q85.12-14.04 85.64-14.04Q86.16-14.04 86.92-14.08L86.92-14.08Q91.88-14.20 93.16-18.24L93.16-18.24Q93.40-19.04 93.40-19.74Q93.40-20.44 93.40-20.64L93.40-20.64Q93.32-23.32 92-24.96Q90.68-26.60 88.44-26.72L88.44-26.72Q87.48-26.76 86.04-26.76Z M139.48-0.40L139.48-0.40L140.12-0.40L140.12 0L131.44 0L131.44-0.36L132.04-0.36Q132.72-0.36 133.20-0.90Q133.68-1.44 133.60-2.08L133.60-2.08L131.80-22.20L123.40-3.52Q122.28-1.08 122.04 0.56L122.04 0.56L121.64 0.56L111.40-21.64L109.68-2.08Q109.60-1.44 110.08-0.90Q110.56-0.36 111.20-0.36L111.20-0.36L111.84-0.36L111.84 0L104.08 0L104.08-0.40L104.72-0.40Q105.84-0.40 106.66-1.08Q107.48-1.76 107.64-2.92L107.64-2.92L110.64-28.56L111.04-28.56L122.20-4.44L133.12-28.56L133.48-28.56L136.56-2.92Q136.76-1.32 138.16-0.68L138.16-0.68Q138.76-0.40 139.48-0.40Z M148.90-24.54Q152.88-28.56 159.28-28.56Q165.68-28.56 169.68-24.54Q173.68-20.52 173.68-14Q173.68-7.48 169.68-3.46Q165.68 0.56 159.28 0.56Q152.88 0.56 148.90-3.46Q144.92-7.48 144.92-14Q144.92-20.52 148.90-24.54ZM151.10-4.32Q154.20-0.64 159.30-0.64Q164.40-0.64 167.50-4.32Q170.60-8 170.60-14L170.60-14Q170.60-17.96 169.20-21Q167.80-24.04 165.22-25.70Q162.64-27.36 159.28-27.36L159.28-27.36Q154.20-27.36 151.10-23.68Q148-20 148-14Q148-8 151.10-4.32Z M206.24-28L206.24-27.60L205.88-27.60Q204.52-27.60 203.40-26.52L203.40-26.52Q202.76-25.96 202.40-25.12L202.40-25.12L192.76-3.56Q191.28-0.32 191.28 0.56L191.28 0.56L190.92 0.56L179.68-25.08Q179.12-26.36 178.14-26.98Q177.16-27.60 176.16-27.60L176.16-27.60L175.84-27.60L175.84-28L184.84-28L184.84-27.60L184.48-27.60Q183.28-27.60 182.88-26.48L182.88-26.48Q182.80-26.24 182.80-25.92Q182.80-25.60 183-25.12L183-25.12L191.36-4.16L200.08-25.12Q200.24-25.60 200.24-26.06Q200.24-26.52 199.82-27.06Q199.40-27.60 198.56-27.60L198.56-27.60L198.20-27.60L198.20-28L206.24-28Z M210.24-0.40L210.76-0.40Q211.80-0.40 212.54-1.14Q213.28-1.88 213.32-2.92L213.32-2.92L213.32-25.12Q213.28-26.16 212.54-26.88Q211.80-27.60 210.76-27.60L210.76-27.60L210.24-27.60L210.24-28L219-28L219-27.60L218.48-27.60Q217.44-27.60 216.70-26.88Q215.96-26.16 215.92-25.12L215.92-25.12L215.92-2.92Q215.92-1.88 216.68-1.14Q217.44-0.40 218.48-0.40L218.48-0.40L219-0.40L219 0L210.24 0L210.24-0.40Z M225.76-0.40L226.28-0.40Q227.32-0.40 228.06-1.14Q228.80-1.88 228.84-2.92L228.84-2.92L228.84-25.32Q228.72-26.28 228-26.94Q227.28-27.60 226.28-27.60L226.28-27.60L225.80-27.60L225.76-28L237.48-28Q238.72-28 240.18-28.24Q241.64-28.48 242.24-28.72L242.24-28.72L242.24-23.68L241.84-23.68L241.84-24.40Q241.84-25.36 241.18-26.04Q240.52-26.72 239.60-26.76L239.60-26.76L231.44-26.76L231.44-14.40L238.20-14.40Q239-14.44 239.56-15Q240.12-15.56 240.12-16.40L240.12-16.40L240.12-16.96L240.52-16.96L240.52-10.64L240.12-10.64L240.12-11.24Q240.12-12.04 239.58-12.60Q239.04-13.16 238.24-13.20L238.24-13.20L231.44-13.20L231.44-1.24L237.16-1.24Q240.12-1.24 241.68-2.56Q243.24-3.88 244.28-6.48L244.28-6.48L244.68-6.48L242.36 0L225.76 0L225.76-0.40Z M250.88-1.64L250.88-1.64Q250.76-2.20 250.76-3.80Q250.76-5.40 251.36-7.20L251.36-7.20L251.72-7.20Q251.68-6.76 251.68-6.32L251.68-6.32Q251.68-3.88 253.16-2.26Q254.64-0.64 257.08-0.64L257.08-0.64Q259.60-0.64 261.22-2.16Q262.84-3.68 262.84-5.98Q262.84-8.28 261.28-9.72L261.28-9.72L253.60-16.84Q251.44-18.84 251.44-21.68Q251.44-24.52 253.34-26.54Q255.24-28.56 258.48-28.56L258.48-28.56Q260-28.56 261.92-28.16L261.92-28.16L263.48-28.16L263.48-23.24L263.12-23.24Q263.12-25.12 261.82-26.24Q260.52-27.36 258.48-27.36Q256.44-27.36 255.06-26Q253.68-24.64 253.68-22.60Q253.68-20.56 255.28-19.08L255.28-19.08L263.16-11.80Q265.16-9.96 265.16-6.76Q265.16-3.56 263.12-1.50Q261.08 0.56 257.68 0.56L257.68 0.56Q255.92 0.56 253.94 0.02Q251.96-0.52 250.88-1.64Z"/></g>
</svg>
</g></svg></svg>